<svg width="20" height="20" viewBox="0 0 20 20" fill="none" xmlns="http://www.w3.org/2000/svg">
<path d="M10.0002 0C7.67571 0.00823729 5.42667 0.826025 3.63977 2.31277C1.85286 3.79952 0.63972 5.86234 0.208905 8.1466C-0.221909 10.4309 0.156518 12.7939 1.27913 14.8293C2.40174 16.8648 4.1984 18.4456 6.36023 19.3C6.26023 18.51 6.19023 17.3 6.39023 16.43L7.56023 11.46C7.56023 11.46 7.26023 10.86 7.26023 9.98C7.26023 8.59 8.07023 7.56 9.08023 7.56C9.93023 7.56 10.3502 8.2 10.3502 8.96C10.3502 9.82 9.80023 11.1 9.51023 12.29C9.27023 13.29 10.0102 14.1 11.0002 14.1C12.7802 14.1 14.1402 12.23 14.1402 9.53C14.1402 7.13 12.4202 5.47 9.96023 5.47C9.37582 5.44433 8.79227 5.53734 8.2448 5.74342C7.69733 5.94951 7.19729 6.26438 6.77487 6.66904C6.35245 7.07371 6.01641 7.55977 5.78702 8.09789C5.55763 8.63601 5.43966 9.21503 5.44023 9.8C5.44023 10.66 5.77023 11.58 6.18023 12.08C6.26023 12.18 6.27023 12.27 6.24023 12.37L5.96023 13.5C5.92023 13.68 5.81023 13.73 5.63023 13.64C4.37023 13.05 3.59023 11.24 3.59023 9.76C3.59023 6.61 5.89023 3.72 10.2102 3.72C13.6702 3.72 16.3802 6.18 16.3802 9.49C16.3802 12.94 14.2002 15.71 11.1802 15.71C10.1802 15.71 9.22023 15.18 8.90023 14.56L8.27023 16.93C7.97509 17.8577 7.55811 18.7421 7.03023 19.56C8.40406 19.9816 9.85261 20.1021 11.2772 19.9133C12.7018 19.7245 14.069 19.2309 15.2856 18.4661C16.5023 17.7014 17.5398 16.6833 18.3275 15.4814C19.1152 14.2795 19.6346 12.9219 19.8504 11.5011C20.0661 10.0804 19.9731 8.62979 19.5776 7.24822C19.1822 5.86664 18.4936 4.58652 17.5588 3.49506C16.6241 2.40359 15.465 1.52642 14.1607 0.923296C12.8563 0.320168 11.4373 0.00525257 10.0002 0Z" fill="white"/>
</svg>
